# xmcd CD database file
#
# Track frame offsets:
#	150
#	16113
#	36760
#	63015
#	75496
#	92058
#	122394
#	141805
#	165235
#	192807
#	201867
#	220642
#
# Disc length: 3001 seconds
#
# Revision: 1
# Processed by: cddbd v1.5.1PL0 Copyright (c) Steve Scherf et al.
# Submitted via: Feurio! 1.67 - http://www.feurio.com
#
DISCID=890bb70c
DTITLE=Jackie Leven - Elegy For Johnny Cash
DYEAR=2005
DGENRE=folk
TTITLE0=Blue Soul Dark Road
TTITLE1=Museum Of Childhood
TTITLE2=Elegy For Johnny Cash
TTITLE3=Law Of Tide
TTITLE4=All The Rage
TTITLE5=No Honour In This Love
TTITLE6=Vibration White Finger
TTITLE7=King Of The Barley
TTITLE8=And You'll Never Hear Surf Music Again
TTITLE9=In Memory Of My Mother
TTITLE10=Gladly Go Blind
TTITLE11=Why Log Truck Drivers Rise Eariler Than Students Of Zen
EXTD=
EXTT0=
EXTT1=
EXTT2=
EXTT3=
EXTT4=
EXTT5=
EXTT6=
EXTT7=
EXTT8=
EXTT9=
EXTT10=
EXTT11=
PLAYORDER=
